<svg xmlns="http://www.w3.org/2000/svg" width="47.432" height="29.515" viewBox="0 0 47.432 29.515">
  <path id="Behance" d="M181.08,151.277a8.025,8.025,0,0,1,1.139,4.395,8.545,8.545,0,0,1-1.3,4.665,8.215,8.215,0,0,1-2.116,2.334,7.883,7.883,0,0,1-3.337,1.465,21.429,21.429,0,0,1-4.151.378H158.02V135h14.216q5.424.11,7.65,3.147a7.442,7.442,0,0,1,1.356,4.531,6.524,6.524,0,0,1-1.356,4.314,7.016,7.016,0,0,1-2.225,1.682A6.468,6.468,0,0,1,181.08,151.277ZM164.8,146.613h6.24a5.974,5.974,0,0,0,3.147-.732,2.779,2.779,0,0,0,1.194-2.577,2.628,2.628,0,0,0-1.573-2.713,10.911,10.911,0,0,0-3.527-.488H164.8v6.511Zm11.177,8.571a3.159,3.159,0,0,0-1.9-3.146,7.028,7.028,0,0,0-2.93-.488H164.8v7.867h6.24a6.571,6.571,0,0,0,2.984-.541A3.74,3.74,0,0,0,175.979,155.184Zm29.3-4.775a26.547,26.547,0,0,1,.163,4.178H190.086q.108,3.2,2.17,4.448a5.547,5.547,0,0,0,3.093.815,4.644,4.644,0,0,0,3.038-.977,4.063,4.063,0,0,0,1.139-1.465h5.643a6.89,6.89,0,0,1-2.062,3.852q-2.822,3.093-7.976,3.091a11.461,11.461,0,0,1-7.406-2.6q-3.229-2.6-3.228-8.463,0-5.536,2.9-8.464a10.183,10.183,0,0,1,7.569-2.93,12.1,12.1,0,0,1,4.965.977,8.606,8.606,0,0,1,3.662,3.147A10.446,10.446,0,0,1,205.279,150.409Zm-4.395-11.231H188.947v-2.984h11.937Zm-1.139,11.774a4.66,4.66,0,0,0-1.492-3.363,4.863,4.863,0,0,0-3.283-1.139,4.329,4.329,0,0,0-3.283,1.219,5.958,5.958,0,0,0-1.492,3.283Z" transform="translate(-158.02 -135)" fill="#a8a6a2"/>
</svg>
