<svg xmlns="http://www.w3.org/2000/svg" width="43.293" height="41.432" viewBox="0 0 43.293 41.432">
  <path id="LinkedIn" d="M140.683,140.779a4.949,4.949,0,0,0,0-6.928,5.136,5.136,0,0,0-3.747-1.377,5.262,5.262,0,0,0-3.782,1.377,4.58,4.58,0,0,0-1.449,3.464,4.629,4.629,0,0,0,1.414,3.464,5.039,5.039,0,0,0,3.676,1.378h.071A5.229,5.229,0,0,0,140.683,140.779Zm.848,5.2h-9.26V173.9h9.26Zm33.436,11.876a13.545,13.545,0,0,0-3.04-9.471,9.892,9.892,0,0,0-15.976,1.555v-3.959h-9.26q.069,1.622,0,14.916V173.9h9.26V158.276a6.89,6.89,0,0,1,.283-2.262,5.614,5.614,0,0,1,1.7-2.331,4.684,4.684,0,0,1,3.11-1.06,4.075,4.075,0,0,1,3.605,1.767,8.261,8.261,0,0,1,1.06,4.526V173.9h9.26Z" transform="translate(-131.704 -132.469)" fill="#a8a6a2"/>
</svg>
